<svg xmlns="http://www.w3.org/2000/svg" id="Ebene_1" viewBox="0 0 281.2251 50.905"><path d="M66.4529,15.3239v-3.943h-8.312v30.012h8.702v-14.169c0-2.864,.735-4.974,2.204-6.332,1.469-1.357,3.393-2.036,5.774-2.036,.335,0,.65,.01,.948,.028,.297,.019,.632,.047,1.004,.083V10.9349c-2.827,0-5.225,.548-7.196,1.645-1.264,.704-2.304,1.62-3.124,2.744" style="fill:#fff;"></path><path d="M95.3509,34.9502c-1.154,.688-2.455,1.032-3.906,1.032-1.525,0-2.724-.325-3.598-.976-.874-.65-1.311-1.534-1.311-2.65,0-1.004,.381-1.841,1.144-2.511,.762-.668,2.166-1.004,4.212-1.004h5.969v3.069c-.521,1.339-1.358,2.352-2.51,3.04m7.419-20.78c-2.529-2.156-6.081-3.235-10.655-3.235-2.38,0-4.724,.316-7.029,.948-2.306,.632-4.277,1.525-5.913,2.677l3.124,6.081c1.078-.855,2.389-1.534,3.933-2.036,1.542-.502,3.114-.753,4.713-.753,2.343,0,4.082,.521,5.216,1.562s1.702,2.492,1.702,4.351h-6.918c-3.049,0-5.522,.382-7.419,1.143-1.896,.763-3.282,1.814-4.156,3.153-.874,1.338-1.311,2.901-1.311,4.685,0,1.712,.447,3.255,1.339,4.631,.892,1.376,2.176,2.464,3.849,3.263,1.674,.799,3.682,1.2,6.025,1.2,2.64,0,4.798-.503,6.471-1.507,1.133-.68,2.022-1.578,2.678-2.685v3.745h8.144V24.2673c0-4.574-1.264-7.94-3.793-10.097" style="fill:#fff;"></path><path d="M135.6547,30.8227c-.688,1.246-1.609,2.203-2.761,2.873-1.153,.669-2.436,1.004-3.85,1.004-1.45,0-2.752-.335-3.904-1.004-1.153-.67-2.074-1.627-2.762-2.873-.688-1.246-1.032-2.724-1.032-4.436,0-1.748,.344-3.235,1.032-4.462,.688-1.228,1.609-2.176,2.762-2.845,1.152-.67,2.454-1.004,3.904-1.004,1.414,0,2.697,.334,3.85,1.004,1.152,.669,2.073,1.617,2.761,2.845,.688,1.227,1.032,2.714,1.032,4.462,0,1.712-.344,3.19-1.032,4.436m.865-16.301c-.692-.758-1.47-1.4-2.343-1.914-1.897-1.115-4.11-1.673-6.639-1.673-2.826,0-5.374,.633-7.642,1.896-2.269,1.265-4.064,3.05-5.383,5.356-1.321,2.306-1.98,5.04-1.98,8.2,0,3.125,.659,5.839,1.98,8.145,1.319,2.307,3.114,4.1,5.383,5.383,2.268,1.284,4.816,1.925,7.642,1.925,2.641,0,4.9-.558,6.778-1.674,.986-.586,1.849-1.338,2.595-2.247v3.475h8.312V.0007h-8.703V14.5217h0Z" style="fill:#fff;"></path><rect x="153.2541" y="11.38" width="8.702" height="30.013" style="fill:#fff;"></rect><path d="M190.9649,30.8221c-.669,1.247-1.581,2.204-2.734,2.873-1.153,.669-2.454,1.004-3.904,1.004-1.451,0-2.753-.335-3.905-1.004-1.154-.669-2.074-1.626-2.762-2.873-.689-1.246-1.032-2.724-1.032-4.435,0-1.748,.343-3.236,1.032-4.463,.688-1.227,1.608-2.175,2.762-2.845,1.152-.669,2.454-1.004,3.905-1.004,1.45,0,2.751,.335,3.904,1.004,1.153,.67,2.065,1.618,2.734,2.845s1.004,2.715,1.004,4.463c0,1.711-.335,3.189-1.004,4.435m1.841-17.907c-2.492-1.32-5.319-1.98-8.479-1.98-3.199,0-6.035,.66-8.507,1.98-2.474,1.32-4.427,3.143-5.858,5.467-1.432,2.325-2.148,4.993-2.148,8.005,0,2.976,.716,5.626,2.148,7.949,1.431,2.325,3.384,4.156,5.858,5.496,2.472,1.338,5.308,2.008,8.507,2.008,3.16,0,5.987-.67,8.479-2.008,2.491-1.34,4.444-3.171,5.858-5.496,1.413-2.323,2.119-4.973,2.119-7.949,0-3.05-.706-5.727-2.119-8.033-1.414-2.306-3.367-4.119-5.858-5.439" style="fill:#fff;"></path><polygon points="218.5636 31.8143 210.2666 11.3803 201.2856 11.3803 213.8926 41.3933 222.8746 41.3933 235.5376 11.3803 227.1696 11.3803 218.5636 31.8143" style="fill:#fff;"></polygon><path d="M253.4451,34.9502c-1.154,.688-2.455,1.032-3.906,1.032-1.525,0-2.724-.325-3.598-.976-.874-.65-1.311-1.534-1.311-2.65,0-1.004,.381-1.841,1.144-2.511,.762-.668,2.166-1.004,4.212-1.004h5.969v3.069c-.521,1.339-1.358,2.352-2.51,3.04m7.419-20.78c-2.529-2.156-6.081-3.235-10.655-3.235-2.38,0-4.724,.316-7.029,.948-2.306,.632-4.277,1.525-5.913,2.677l3.124,6.081c1.078-.855,2.389-1.534,3.933-2.036,1.542-.502,3.114-.753,4.714-.753,2.342,0,4.081,.521,5.215,1.562,1.135,1.041,1.702,2.492,1.702,4.351h-6.917c-3.05,0-5.523,.382-7.42,1.143-1.897,.763-3.282,1.814-4.156,3.153-.874,1.338-1.311,2.901-1.311,4.685,0,1.712,.447,3.255,1.339,4.631,.892,1.376,2.176,2.464,3.849,3.263,1.674,.799,3.682,1.2,6.025,1.2,2.64,0,4.798-.503,6.471-1.507,1.133-.68,2.022-1.578,2.678-2.685v3.745h8.144V24.2673c0-4.574-1.264-7.94-3.793-10.097" style="fill:#fff;"></path><rect x="272.5231" width="8.702" height="41.393" style="fill:#fff;"></rect><path d="M10.455,21.415c0-5.267,4.269-9.537,9.536-9.537,5.258,0,9.521,4.257,9.535,9.512h-.011v9.549h-9.549v.01c-5.255-.013-9.511-4.276-9.511-9.534m29.477,9.524v-9.509c0-.013,.001-.026,.001-.04C39.933,10.363,30.994,1.423,19.966,1.423S0,10.363,0,21.39s8.939,19.967,19.966,19.967c.014,0,.027-.001,.04-.001h9.509v9.549h10.417v-9.549h9.549v-10.417h-9.549Z" style="fill:#ff51d3;"></path></svg>